<svg width="50" height="52" viewBox="0 0 50 52" fill="none" xmlns="http://www.w3.org/2000/svg">
<path d="M24.0031 50.1733L23.9759 50.1723H23.9487C22.2215 50.1723 21.2726 49.4657 20.2954 48.4359C20.0699 48.1983 19.8529 47.9538 19.6174 47.6884C19.5819 47.6483 19.5459 47.6078 19.5095 47.5667C19.2394 47.2627 18.9446 46.9342 18.6288 46.6173C17.9936 45.9798 17.2201 45.3335 16.2075 44.8999C15.1791 44.4596 14.2126 44.3737 13.3536 44.3947C12.9336 44.405 12.5272 44.4414 12.166 44.4756C12.1244 44.4795 12.0835 44.4834 12.0432 44.4872C11.719 44.518 11.4331 44.5452 11.1453 44.5598C10.5181 44.5914 9.98961 44.5547 9.46229 44.3713C8.94518 44.1914 8.3286 43.8348 7.59539 43.0823C6.41826 41.7509 6.27172 40.5206 6.33376 39.0802C6.34825 38.7438 6.37372 38.4089 6.40127 38.0466C6.4051 37.9963 6.40897 37.9454 6.41286 37.8939C6.44383 37.4835 6.47536 37.0396 6.48487 36.5885C6.504 35.6805 6.43705 34.6724 6.06814 33.6311C5.69206 32.5696 5.10788 31.7919 4.51358 31.1618C4.22322 30.8539 3.92317 30.574 3.65409 30.3254C3.62257 30.2963 3.59154 30.2677 3.56095 30.2394C3.32015 30.0173 3.10679 29.8204 2.90087 29.6132C2.45154 29.161 2.10957 28.728 1.87316 28.1854C1.63811 27.6459 1.46761 26.9051 1.50519 25.7981L1.50606 25.7726V25.7472C1.50606 23.9054 2.21702 22.9028 3.20622 21.8999C3.43603 21.6669 3.67251 21.4428 3.92938 21.1993C3.9681 21.1626 4.00729 21.1255 4.04699 21.0878C4.34121 20.8086 4.65916 20.5038 4.96577 20.1774C5.58422 19.5191 6.20323 18.7251 6.61664 17.6937C7.03451 16.6512 7.11595 15.6734 7.09598 14.7998C7.08618 14.3713 7.05137 13.9558 7.01833 13.5824C7.01454 13.5395 7.01078 13.4973 7.00707 13.4556C6.97727 13.1209 6.95065 12.822 6.93642 12.5211C6.90527 11.8622 6.94097 11.2958 7.12544 10.7293C7.30584 10.1753 7.65862 9.53048 8.38586 8.77345C9.66051 7.56952 10.8192 7.42736 12.1825 7.49009C12.5053 7.50495 12.8268 7.53106 13.1775 7.55955C13.2263 7.56351 13.2756 7.56752 13.3255 7.57154C13.7226 7.60356 14.1556 7.63646 14.5966 7.64639C15.4856 7.6664 16.4801 7.59641 17.5074 7.20759C18.5521 6.81215 19.3111 6.20065 19.9191 5.58809C20.2169 5.288 20.4876 4.97804 20.7279 4.70006C20.7561 4.6675 20.7838 4.63544 20.8111 4.60383C21.0261 4.35493 21.2167 4.1342 21.4173 3.92122C21.8569 3.45458 22.2714 3.10693 22.7831 2.86879C23.2877 2.63393 23.9834 2.4613 25.0345 2.49942L25.0616 2.5004H25.0888C26.816 2.5004 27.7649 3.20704 28.7422 4.23681C28.9676 4.47441 29.1846 4.71895 29.4201 4.98443C29.4556 5.02446 29.4916 5.06498 29.528 5.10602C29.7981 5.41002 30.0929 5.73856 30.4087 6.05548C31.0439 6.69296 31.8174 7.33922 32.8301 7.77283C33.8584 8.21317 34.8249 8.299 35.6839 8.27802C36.1039 8.26777 36.5103 8.23134 36.8715 8.19719C36.9131 8.19326 36.9539 8.18938 36.9942 8.18555C37.3185 8.15471 37.6044 8.12751 37.8922 8.11297C38.5194 8.08129 39.0479 8.118 39.5752 8.30143C40.0923 8.48131 40.7089 8.83799 41.4421 9.59046C42.6192 10.9218 42.7658 12.1522 42.7038 13.5925C42.6893 13.9289 42.6638 14.2639 42.6362 14.6262C42.6324 14.6765 42.6285 14.7274 42.6247 14.7789C42.5937 15.1893 42.5621 15.6331 42.5526 16.0843C42.5335 16.9922 42.6005 18.0004 42.9694 19.0416C43.3455 20.1031 43.9296 20.8808 44.5239 21.511C44.8143 21.8189 45.1143 22.0988 45.3834 22.3473C45.4149 22.3764 45.4459 22.405 45.4765 22.4333C45.7173 22.6554 45.9307 22.8523 46.1366 23.0596C46.586 23.5118 46.9279 23.9447 47.1643 24.4873C47.3994 25.0268 47.5699 25.7676 47.5323 26.8747L47.5315 26.9001V26.9256C47.5315 28.7673 46.8205 29.77 45.8313 30.7728C45.6015 31.0058 45.365 31.2299 45.1082 31.4733C45.0695 31.5101 45.0302 31.5472 44.9905 31.5849C44.6963 31.8642 44.3783 32.1689 44.0717 32.4953C43.4533 33.1537 42.8343 33.9476 42.4209 34.979C42.003 36.0215 41.9216 36.9994 41.9415 37.873C41.9513 38.3015 41.9861 38.717 42.0192 39.0904C42.023 39.1332 42.0267 39.1755 42.0304 39.2171C42.0602 39.5518 42.0869 39.8507 42.1011 40.1516C42.1322 40.8106 42.0965 41.3769 41.9121 41.9435C41.7317 42.4975 41.3789 43.1423 40.6517 43.8993C39.377 45.1032 38.2183 45.2454 36.855 45.1827C36.5322 45.1678 36.2108 45.1417 35.8602 45.1132C35.8114 45.1092 35.762 45.1052 35.712 45.1012C35.3149 45.0692 34.8819 45.0363 34.4409 45.0264C33.5519 45.0063 32.5574 45.0763 31.5301 45.4651C30.4854 45.8606 29.7264 46.4721 29.1184 47.0847C28.8206 47.3847 28.5499 47.6947 28.3096 47.9727C28.2814 48.0053 28.2536 48.0374 28.2263 48.069C28.0114 48.3179 27.8208 48.5386 27.6202 48.7515C27.1806 49.2182 26.7661 49.5658 26.2544 49.804C25.7498 50.0388 25.0541 50.2114 24.0031 50.1733Z" stroke="white" stroke-width="3"/>
<path d="M11.9774 18.0866C13.2052 15.7298 14.9593 13.9168 17.1957 12.6477C19.4321 11.3787 21.9754 10.7441 24.8696 10.7441C28.5531 10.7441 31.6226 11.7413 34.1221 13.7355C36.5339 15.7298 38.1564 18.5398 38.9457 22.1657H29.3424C28.5531 19.8089 26.9744 18.6758 24.6942 18.6758C23.0278 18.6758 21.7123 19.3557 20.7476 20.67C19.739 21.9844 19.2566 23.888 19.2566 26.3355C19.2566 28.783 19.739 30.6866 20.7476 32.001C21.7123 33.3154 23.0278 33.9952 24.6942 33.9952C27.0183 33.9952 28.5531 32.8168 29.3862 30.5053H38.9457C38.1564 34.0859 36.5339 36.8506 34.0344 38.8902C31.5349 40.9297 28.4654 41.9269 24.8257 41.9269C21.9316 41.9269 19.3882 41.2923 17.1518 40.0233C14.9154 38.7542 13.2052 36.9413 11.9335 34.5844C10.7057 32.2276 10.0918 29.5082 10.0918 26.3355C10.0918 23.1628 10.7057 20.4434 11.9774 18.0866Z" fill="white"/>
</svg>
