<svg width="266" height="63" viewBox="0 0 266 63" fill="none" xmlns="http://www.w3.org/2000/svg">
<g clip-path="url(#clip0)">
<path d="M59.4186 39.2043C57.1384 37.9353 55.2966 36.1223 53.9811 33.7655C52.6656 31.4087 52.0078 28.6439 52.0078 25.5166C52.0078 22.3892 52.6656 19.6698 54.025 17.2677C55.3405 14.9108 57.1822 13.0525 59.5063 11.7835C61.8304 10.5144 64.4176 9.87988 67.3118 9.87988C70.206 9.87988 72.7932 10.5144 75.1173 11.7835C77.4414 13.0525 79.2393 14.8655 80.5986 17.2677C81.9142 19.6245 82.6158 22.3892 82.6158 25.5166C82.6158 28.6439 81.958 31.3633 80.5986 33.7655C79.2393 36.1223 77.3975 37.9806 75.0734 39.2497C72.7493 40.5187 70.1183 41.1533 67.268 41.1533C64.3299 41.1079 61.7427 40.4734 59.4186 39.2043ZM71.6092 31.0914C72.837 29.777 73.4071 27.9187 73.4071 25.4712C73.4071 23.0238 72.837 21.1655 71.6531 19.8511C70.4691 18.5367 69.022 17.9022 67.3118 17.9022C65.5578 17.9022 64.1107 18.5367 62.9267 19.8511C61.7866 21.1202 61.1727 23.0238 61.1727 25.4712C61.1727 27.9187 61.7427 29.777 62.8829 31.0914C64.023 32.4058 65.4701 33.0403 67.1803 33.0403C68.8904 33.0403 70.3814 32.4058 71.6092 31.0914Z" fill="white"/>
<path d="M113.487 13.4612C115.548 15.7727 116.556 18.9454 116.556 22.9339V40.6555H107.611V24.2029C107.611 22.1634 107.084 20.577 106.076 19.4893C105.067 18.3562 103.708 17.8123 101.954 17.8123C100.244 17.8123 98.8843 18.3562 97.8319 19.4893C96.8233 20.6224 96.2971 22.2087 96.2971 24.2029V40.7008H87.3076V10.3339H96.2971V14.3677C97.2179 13.008 98.4458 11.9655 99.9806 11.195C101.515 10.4245 103.269 10.0166 105.199 10.0166C108.663 10.0166 111.426 11.1497 113.487 13.4612Z" fill="white"/>
<path d="M139.183 32.7683V40.6547H134.622C131.377 40.6547 128.834 39.8388 126.992 38.1619C125.151 36.4849 124.274 33.8108 124.274 30.0942V18.0381H120.678V10.3331H124.274V2.94531H133.263V10.3331H139.139V18.0381H133.263V30.2302C133.263 31.1367 133.482 31.7712 133.877 32.1791C134.315 32.587 135.017 32.7683 135.982 32.7683H139.183Z" fill="white"/>
<path d="M171.72 27.738H151.373C151.505 29.6416 152.119 31.0466 153.127 32.0438C154.18 33.0409 155.451 33.5395 156.942 33.5395C159.179 33.5395 160.757 32.5423 161.634 30.5934H171.194C170.711 32.5877 169.834 34.4006 168.519 35.9869C167.247 37.5733 165.625 38.8423 163.695 39.7488C161.766 40.6553 159.617 41.1085 157.205 41.1085C154.311 41.1085 151.768 40.474 149.531 39.2049C147.295 37.9359 145.541 36.1229 144.269 33.7661C142.998 31.4092 142.384 28.6445 142.384 25.5172C142.384 22.3445 142.998 19.6251 144.269 17.2682C145.497 14.9114 147.251 13.0984 149.488 11.8294C151.724 10.5603 154.311 9.92578 157.205 9.92578C160.056 9.92578 162.555 10.5603 164.792 11.7841C166.984 13.0078 168.738 14.7754 169.966 17.0416C171.194 19.3078 171.852 21.9819 171.852 25.0186C171.852 25.8797 171.808 26.7862 171.72 27.738ZM162.643 22.5711C162.643 20.9848 162.117 19.7157 161.064 18.7639C160.012 17.8121 158.696 17.3589 157.118 17.3589C155.627 17.3589 154.355 17.8121 153.303 18.7186C152.25 19.6251 151.636 20.8941 151.373 22.5711H162.643Z" fill="white"/>
<path d="M202.723 13.4616C204.784 15.7731 205.793 18.9458 205.793 22.9343V40.6559H196.847V24.2033C196.847 22.1638 196.321 20.5774 195.312 19.4897C194.304 18.3566 192.944 17.7674 191.234 17.7674C189.524 17.7674 188.165 18.3112 187.112 19.4443C186.104 20.5774 185.577 22.1638 185.577 24.158V40.6559H176.588V10.2889H185.577V14.3228C186.498 12.963 187.726 11.9206 189.261 11.1501C190.796 10.3796 192.55 9.97168 194.479 9.97168C197.943 10.017 200.662 11.1501 202.723 13.4616Z" fill="white"/>
<path d="M211.975 17.2223C213.115 14.8655 214.65 13.0526 216.624 11.7835C218.597 10.5144 220.789 9.87989 223.201 9.87989C225.131 9.87989 226.885 10.2878 228.507 11.149C230.086 11.9648 231.357 13.0979 232.278 14.5029V0.407227H241.268V40.6547H232.278V36.3036C231.445 37.754 230.217 38.9324 228.683 39.7936C227.104 40.6547 225.306 41.1079 223.245 41.1079C220.833 41.1079 218.641 40.4734 216.667 39.159C214.694 37.89 213.159 36.0317 212.019 33.6749C210.879 31.318 210.309 28.5533 210.309 25.4259C210.265 22.3439 210.835 19.5792 211.975 17.2223ZM230.393 19.9871C229.165 18.6274 227.63 17.9928 225.832 17.9928C224.034 17.9928 222.543 18.6727 221.272 19.9871C220.044 21.3015 219.386 23.1144 219.386 25.4713C219.386 27.8281 220 29.641 221.272 31.0008C222.5 32.3605 224.034 33.0403 225.832 33.0403C227.63 33.0403 229.121 32.3605 230.393 31.0461C231.621 29.7317 232.278 27.8734 232.278 25.5619C232.278 23.1597 231.664 21.3468 230.393 19.9871Z" fill="white"/>
<path d="M260.738 11.422C262.317 10.4702 264.071 9.97168 266 9.97168V19.8069H263.544C261.308 19.8069 259.598 20.3055 258.502 21.3026C257.361 22.2997 256.835 24.0674 256.835 26.5602V40.6559H247.846V10.2889H256.835V15.3652C257.844 13.7336 259.159 12.4192 260.738 11.422Z" fill="white"/>
<path d="M23.9972 49.1733L23.97 49.1723H23.9428C22.2157 49.1723 21.2667 48.4657 20.2895 47.4359C20.064 47.1983 19.8471 46.9538 19.6116 46.6884C19.576 46.6483 19.5401 46.6078 19.5036 46.5667C19.2335 46.2627 18.9388 45.9342 18.623 45.6173C17.9877 44.9798 17.2142 44.3335 16.2016 43.8999C15.1732 43.4596 14.2068 43.3737 13.3477 43.3947C12.9277 43.405 12.5214 43.4414 12.1601 43.4756C12.1185 43.4795 12.0777 43.4834 12.0374 43.4872C11.7131 43.518 11.4272 43.5452 11.1394 43.5598C10.5123 43.5914 9.98375 43.5547 9.45643 43.3713C8.93933 43.1914 8.32274 42.8348 7.58953 42.0823C6.4124 40.7509 6.26586 39.5206 6.3279 38.0802C6.34239 37.7438 6.36786 37.4089 6.39541 37.0466C6.39924 36.9963 6.40311 36.9454 6.407 36.8939C6.43797 36.4835 6.4695 36.0396 6.47901 35.5885C6.49814 34.6805 6.43119 33.6724 6.06228 32.6311C5.6862 31.5696 5.10202 30.7919 4.50772 30.1618C4.21736 29.8539 3.91731 29.574 3.64823 29.3254C3.61671 29.2963 3.58568 29.2677 3.55509 29.2394C3.31429 29.0173 3.10093 28.8204 2.89501 28.6132C2.44568 28.161 2.10371 27.728 1.8673 27.1854C1.63225 26.6459 1.46175 25.9051 1.49933 24.7981L1.5002 24.7726V24.7472C1.5002 22.9054 2.21116 21.9028 3.20036 20.8999C3.43017 20.6669 3.66666 20.4428 3.92352 20.1993C3.96224 20.1626 4.00143 20.1255 4.04113 20.0878C4.33535 19.8086 4.65331 19.5038 4.95991 19.1774C5.57836 18.5191 6.19737 17.7251 6.61078 16.6937C7.02865 15.6512 7.11009 14.6734 7.09012 13.7998C7.08032 13.3713 7.04551 12.9558 7.01248 12.5824C7.00868 12.5395 7.00492 12.4973 7.00121 12.4556C6.97141 12.1209 6.94479 11.822 6.93056 11.5211C6.89941 10.8622 6.93511 10.2958 7.11958 9.72928C7.29998 9.17526 7.65276 8.53048 8.38 7.77345C9.65465 6.56952 10.8133 6.42736 12.1766 6.49009C12.4995 6.50495 12.8209 6.53106 13.1717 6.55955C13.2204 6.56351 13.2697 6.56752 13.3196 6.57154C13.7168 6.60356 14.1498 6.63646 14.5907 6.64639C15.4798 6.6664 16.4742 6.59641 17.5015 6.20759C18.5463 5.81215 19.3052 5.20065 19.9132 4.58809C20.2111 4.288 20.4817 3.97804 20.7221 3.70006C20.7502 3.6675 20.7779 3.63544 20.8052 3.60383C21.0202 3.35493 21.2108 3.1342 21.4115 2.92122C21.8511 2.45458 22.2656 2.10693 22.7772 1.86879C23.2818 1.63393 23.9775 1.4613 25.0286 1.49942L25.0558 1.5004H25.083C26.8101 1.5004 27.7591 2.20704 28.7363 3.23681C28.9618 3.47441 29.1787 3.71895 29.4143 3.98443C29.4498 4.02446 29.4857 4.06498 29.5222 4.10602C29.7923 4.41002 30.087 4.73856 30.4028 5.05548C31.0381 5.69296 31.8116 6.33922 32.8242 6.77283C33.8526 7.21317 34.819 7.299 35.6781 7.27802C36.0981 7.26777 36.5044 7.23134 36.8657 7.19719C36.9072 7.19326 36.9481 7.18938 36.9884 7.18555C37.3126 7.15471 37.5986 7.12751 37.8864 7.11297C38.5135 7.08129 39.042 7.118 39.5694 7.30143C40.0865 7.48131 40.703 7.83799 41.4363 8.59046C42.6134 9.92181 42.7599 11.1522 42.6979 12.5925C42.6834 12.9289 42.6579 13.2639 42.6304 13.6262C42.6266 13.6765 42.6227 13.7274 42.6188 13.7789C42.5878 14.1893 42.5563 14.6331 42.5468 15.0843C42.5277 15.9922 42.5946 17.0004 42.9635 18.0416C43.3396 19.1031 43.9238 19.8808 44.5181 20.511C44.8084 20.8189 45.1085 21.0988 45.3776 21.3473C45.4091 21.3764 45.4401 21.405 45.4706 21.4333C45.7115 21.6554 45.9248 21.8523 46.1308 22.0596C46.5801 22.5118 46.9221 22.9447 47.1585 23.4873C47.3935 24.0268 47.564 24.7676 47.5265 25.8747L47.5256 25.9001V25.9256C47.5256 27.7673 46.8146 28.77 45.8254 29.7728C45.5956 30.0058 45.3592 30.2299 45.1024 30.4733C45.0636 30.5101 45.0244 30.5472 44.9847 30.5849C44.6904 30.8642 44.3725 31.1689 44.0659 31.4953C43.4474 32.1537 42.8284 32.9476 42.415 33.979C41.9971 35.0215 41.9157 35.9994 41.9357 36.873C41.9455 37.3015 41.9803 37.717 42.0133 38.0904C42.0171 38.1332 42.0209 38.1755 42.0246 38.2171C42.0544 38.5518 42.081 38.8507 42.0952 39.1516C42.1264 39.8106 42.0907 40.3769 41.9062 40.9435C41.7258 41.4975 41.373 42.1423 40.6458 42.8993C39.3712 44.1032 38.2125 44.2454 36.8492 44.1827C36.5264 44.1678 36.205 44.1417 35.8543 44.1132C35.8055 44.1092 35.7562 44.1052 35.7062 44.1012C35.309 44.0692 34.876 44.0363 34.435 44.0264C33.546 44.0063 32.5515 44.0763 31.5243 44.4651C30.4795 44.8606 29.7206 45.4721 29.1126 46.0847C28.8147 46.3847 28.5441 46.6947 28.3037 46.9727C28.2755 47.0053 28.2478 47.0374 28.2204 47.069C28.0055 47.3179 27.8149 47.5386 27.6143 47.7515C27.1747 48.2182 26.7602 48.5658 26.2486 48.804C25.744 49.0388 25.0483 49.2114 23.9972 49.1733Z" stroke="white" stroke-width="3"/>
<path d="M11.9715 17.0876C13.1994 14.7307 14.9534 12.9178 17.1898 11.6487C19.4262 10.3796 21.9695 9.74512 24.8637 9.74512C28.5472 9.74512 31.6168 10.7422 34.1163 12.7365C36.5281 14.7307 38.1506 17.5408 38.9399 21.1667H29.3365C28.5472 18.8099 26.9686 17.6768 24.6883 17.6768C23.022 17.6768 21.7064 18.3566 20.7417 19.671C19.7332 20.9854 19.2508 22.889 19.2508 25.3365C19.2508 27.784 19.7332 29.6876 20.7417 31.0019C21.7064 32.3163 23.022 32.9962 24.6883 32.9962C27.0124 32.9962 28.5472 31.8178 29.3804 29.5063H38.9399C38.1506 33.0868 36.5281 35.8516 34.0286 37.8912C31.5291 39.9307 28.4595 40.9278 24.8199 40.9278C21.9257 40.9278 19.3823 40.2933 17.1459 39.0242C14.9095 37.7552 13.1994 35.9422 11.9277 33.5854C10.6999 31.2286 10.0859 28.5091 10.0859 25.3365C10.0859 22.1638 10.6999 19.4444 11.9715 17.0876Z" fill="white"/>
</g>
<defs>
<clipPath id="clip0">
<rect width="266" height="63" fill="white"/>
</clipPath>
</defs>
</svg>
