<svg width="306" height="306" viewBox="0 0 306 306" fill="none" xmlns="http://www.w3.org/2000/svg">
<path d="M281.201 158.929C282.307 159.711 283.168 160.783 283.784 162.145C284.4 163.506 284.628 165.011 284.468 166.66C284.297 168.427 283.726 169.975 282.753 171.304C281.781 172.633 280.491 173.629 278.884 174.293C277.3 174.96 275.505 175.196 273.498 175.002C271.516 174.811 269.787 174.234 268.313 173.271C266.839 172.309 265.741 171.07 265.02 169.553C264.296 168.06 264.018 166.442 264.187 164.698C264.351 163.002 264.866 161.545 265.731 160.327C266.594 159.132 267.63 158.268 268.839 157.734L265.22 157.384L265.535 154.123L292.051 156.687L291.736 159.948L281.201 158.929ZM273.821 171.67C275.302 171.813 276.621 171.639 277.777 171.148C278.934 170.657 279.849 169.926 280.521 168.954C281.192 168.006 281.586 166.923 281.703 165.705C281.819 164.511 281.628 163.371 281.13 162.286C280.654 161.227 279.884 160.333 278.821 159.603C277.78 158.9 276.531 158.478 275.074 158.337C273.593 158.193 272.262 158.366 271.081 158.855C269.923 159.37 268.996 160.1 268.302 161.045C267.629 162.017 267.235 163.1 267.119 164.295C267.002 165.513 267.181 166.652 267.657 167.71C268.155 168.795 268.925 169.69 269.966 170.393C271.031 171.099 272.316 171.524 273.821 171.67Z" fill="white"/>
<path d="M268.057 196.755C267.459 196.578 266.836 196.357 266.189 196.09L270.658 180.969C268.76 180.533 267.112 180.734 265.713 181.572C264.33 182.44 263.394 183.702 262.904 185.359C262.503 186.717 262.48 187.937 262.836 189.018C263.209 190.129 263.87 191.025 264.82 191.706L263.82 195.09C262.151 194.046 260.966 192.595 260.264 190.735C259.585 188.883 259.579 186.829 260.246 184.574C260.776 182.778 261.655 181.286 262.883 180.097C264.103 178.931 265.569 178.163 267.28 177.793C269.014 177.43 270.859 177.537 272.816 178.115C274.772 178.694 276.371 179.592 277.613 180.81C278.855 182.027 279.659 183.454 280.027 185.089C280.411 186.754 280.33 188.507 279.786 190.349C279.256 192.144 278.395 193.616 277.204 194.766C276.014 195.916 274.619 196.655 273.02 196.983C271.438 197.341 269.784 197.265 268.057 196.755ZM269.673 193.704C270.869 194.057 271.972 194.096 272.98 193.818C274.011 193.547 274.881 193.016 275.591 192.224C276.316 191.463 276.842 190.53 277.169 189.425C277.638 187.837 277.533 186.329 276.854 184.902C276.168 183.498 274.951 182.45 273.203 181.759L269.673 193.704Z" fill="white"/>
<path d="M262.611 207.737C264.327 208.794 265.615 210.067 266.475 211.554C267.355 213.055 267.781 214.628 267.754 216.274C267.714 217.941 267.235 219.52 266.316 221.012C265.41 222.483 264.307 223.565 263.006 224.258C261.706 224.951 260.412 225.267 259.124 225.207L262.189 227.095L260.453 229.915L243.654 219.57L245.391 216.75L248.518 218.676C247.877 217.52 247.569 216.189 247.594 214.683C247.628 213.209 248.091 211.747 248.985 210.296C249.904 208.805 251.102 207.682 252.58 206.93C254.059 206.177 255.676 205.862 257.432 205.986C259.188 206.109 260.914 206.693 262.611 207.737ZM253.821 221.942C255.088 222.722 256.349 223.146 257.603 223.214C258.858 223.282 260.001 223.028 261.033 222.451C262.072 221.907 262.913 221.114 263.555 220.072C264.197 219.03 264.536 217.929 264.575 216.768C264.613 215.608 264.319 214.483 263.694 213.393C263.068 212.303 262.122 211.368 260.855 210.588C259.567 209.795 258.286 209.358 257.011 209.278C255.756 209.21 254.609 209.448 253.57 209.991C252.551 210.548 251.72 211.347 251.079 212.389C250.437 213.431 250.097 214.533 250.059 215.693C250.028 216.886 250.326 218.028 250.951 219.118C251.597 220.22 252.554 221.161 253.821 221.942Z" fill="white"/>
<path d="M243.677 235.133C245.083 236.612 246.01 238.18 246.461 239.838C246.927 241.514 246.928 243.152 246.463 244.753C245.98 246.37 245.061 247.824 243.704 249.113C241.947 250.783 240.098 251.729 238.157 251.952C236.198 252.19 234.317 251.727 232.514 250.56L235.071 248.13C236.141 248.768 237.273 249.001 238.465 248.827C239.641 248.67 240.75 248.096 241.794 247.104C243.151 245.814 243.801 244.303 243.743 242.57C243.702 240.854 242.871 239.144 241.25 237.439C239.614 235.717 237.931 234.783 236.203 234.637C234.476 234.491 232.933 235.063 231.576 236.353C230.533 237.345 229.894 238.415 229.661 239.564C229.428 240.712 229.611 241.863 230.21 243.015L227.653 245.446C226.647 243.621 226.296 241.719 226.601 239.74C226.923 237.779 227.944 235.98 229.667 234.344C231.024 233.054 232.522 232.209 234.162 231.81C235.784 231.427 237.42 231.511 239.07 232.062C240.72 232.613 242.255 233.637 243.677 235.133Z" fill="white"/>
<path d="M214.155 246.62C215.703 245.61 217.34 245.045 219.066 244.923C220.771 244.814 222.405 245.167 223.967 245.982C225.523 246.83 226.858 248.109 227.972 249.818C229.072 251.507 229.68 253.23 229.795 254.989C229.903 256.781 229.547 258.431 228.726 259.941C227.918 261.47 226.73 262.746 225.161 263.768C223.593 264.79 221.946 265.362 220.221 265.484C218.509 265.626 216.871 265.29 215.309 264.475C213.726 263.673 212.378 262.418 211.264 260.709C210.15 259 209.549 257.243 209.461 255.438C209.366 253.666 209.733 252.009 210.561 250.467C211.389 248.924 212.587 247.642 214.155 246.62ZM215.728 249.032C214.743 249.674 213.969 250.508 213.405 251.534C212.842 252.56 212.601 253.706 212.681 254.972C212.741 256.251 213.203 257.553 214.068 258.88C214.933 260.207 215.929 261.163 217.054 261.747C218.18 262.331 219.309 262.569 220.442 262.461C221.588 262.373 222.653 262.008 223.638 261.366C224.644 260.71 225.418 259.876 225.961 258.864C226.497 257.884 226.715 256.768 226.615 255.515C226.514 254.263 226.032 252.973 225.167 251.646C224.289 250.299 223.307 249.32 222.222 248.71C221.116 248.113 220 247.852 218.875 247.926C217.762 248.021 216.713 248.39 215.728 249.032Z" fill="white"/>
<path d="M201.94 275.918C199.716 276.82 197.639 276.872 195.71 276.074C193.79 275.299 192.316 273.643 191.288 271.108L186.919 260.332L189.922 259.114L194.115 269.457C194.854 271.281 195.874 272.486 197.174 273.072C198.482 273.681 199.926 273.666 201.505 273.025C203.107 272.376 204.183 271.357 204.733 269.969C205.262 268.589 205.138 266.943 204.363 265.03L200.264 254.921L203.3 253.69L210.713 271.973L207.677 273.204L206.622 270.601C206.4 271.779 205.881 272.831 205.065 273.757C204.227 274.693 203.186 275.413 201.94 275.918Z" fill="white"/>
<path d="M182.703 278.822L180.004 267.512C179.781 266.578 179.424 265.96 178.933 265.658C178.447 265.379 177.713 265.356 176.733 265.59L174.387 266.15L173.743 263.454L176.615 262.769C178.389 262.345 179.817 262.436 180.899 263.042C181.981 263.647 182.745 264.884 183.191 266.751L185.89 278.062L188.376 277.468L189.002 280.095L186.516 280.688L187.669 285.52L184.483 286.281L183.33 281.448L178.322 282.643L177.696 280.017L182.703 278.822Z" fill="white"/>
<path d="M153.839 276.273C153.786 275.651 153.766 274.991 153.779 274.291L169.49 272.955C169.206 271.028 168.419 269.565 167.13 268.567C165.819 267.595 164.302 267.182 162.581 267.328C161.17 267.448 160.025 267.871 159.148 268.596C158.248 269.347 157.654 270.288 157.365 271.421L153.849 271.72C154.215 269.786 155.136 268.154 156.612 266.824C158.091 265.518 160.002 264.765 162.346 264.566C164.211 264.408 165.92 264.684 167.474 265.395C169.004 266.107 170.253 267.194 171.22 268.653C172.189 270.136 172.76 271.894 172.933 273.927C173.106 275.959 172.851 277.775 172.168 279.375C171.485 280.975 170.449 282.243 169.059 283.18C167.648 284.143 165.986 284.706 164.072 284.869C162.207 285.028 160.523 284.761 159.019 284.07C157.515 283.379 156.319 282.349 155.432 280.979C154.523 279.635 153.992 278.067 153.839 276.273ZM157.269 276.668C157.375 277.911 157.74 278.952 158.366 279.79C158.993 280.652 159.804 281.27 160.799 281.643C161.773 282.042 162.833 282.192 163.981 282.095C165.631 281.954 166.997 281.308 168.08 280.156C169.138 279.006 169.671 277.492 169.68 275.612L157.269 276.668Z" fill="white"/>
<path d="M138.203 284.617C135.816 284.368 133.959 283.438 132.631 281.827C131.301 280.24 130.778 278.086 131.062 275.365L132.27 263.8L135.493 264.137L134.333 275.236C134.128 277.193 134.462 278.736 135.333 279.865C136.202 281.018 137.484 281.682 139.179 281.859C140.898 282.039 142.326 281.645 143.465 280.678C144.58 279.709 145.244 278.198 145.459 276.145L146.592 265.296L149.85 265.636L147.801 285.258L144.542 284.917L144.834 282.125C144.085 283.06 143.133 283.744 141.977 284.179C140.798 284.611 139.54 284.757 138.203 284.617Z" fill="white"/>
<path d="M126.743 272.977C126.15 274.904 125.241 276.469 124.016 277.674C122.784 278.902 121.368 279.709 119.767 280.095C118.144 280.474 116.484 280.402 114.786 279.88C113.318 279.428 112.059 278.663 111.01 277.587C109.953 276.533 109.262 275.353 108.935 274.048L105.863 284.025L102.698 283.051L110.538 257.59L113.703 258.565L112.612 262.109C113.577 261.176 114.781 260.529 116.222 260.169C117.657 259.833 119.188 259.915 120.817 260.417C122.491 260.932 123.89 261.815 125.012 263.064C126.111 264.307 126.821 265.794 127.141 267.525C127.462 269.256 127.329 271.073 126.743 272.977ZM110.789 268.027C110.352 269.449 110.257 270.776 110.505 272.007C110.754 273.239 111.287 274.282 112.103 275.136C112.89 276.006 113.868 276.621 115.038 276.982C116.208 277.342 117.359 277.395 118.492 277.141C119.625 276.887 120.641 276.321 121.539 275.443C122.437 274.564 123.105 273.414 123.543 271.992C123.988 270.547 124.09 269.197 123.849 267.942C123.6 266.71 123.082 265.659 122.296 264.789C121.502 263.942 120.52 263.339 119.35 262.978C118.18 262.618 117.029 262.565 115.896 262.819C114.733 263.089 113.703 263.663 112.804 264.541C111.899 265.443 111.227 266.604 110.789 268.027Z" fill="white"/>
<path d="M96.5871 269.056C95.5733 269.815 94.4549 270.243 93.232 270.338C91.9876 270.422 90.6759 270.127 89.2968 269.45L90.7869 266.412L91.5626 266.792C94.8595 268.409 97.385 267.429 99.1394 263.852L103.863 254.221L106.805 255.663L98.1176 273.375L95.1763 271.933L96.5871 269.056Z" fill="white"/>
<path d="M76.4316 256.55C75.1678 257.037 73.7986 257.16 72.3239 256.918C70.8492 256.677 69.4699 256.033 68.186 254.987C66.809 253.865 65.8369 252.532 65.2696 250.986C64.7023 249.44 64.5873 247.814 64.9248 246.108C65.2471 244.421 66.0449 242.795 67.3181 241.232C68.5763 239.688 70.0143 238.569 71.6322 237.874C73.2501 237.18 74.8901 236.953 76.5523 237.193C78.1958 237.417 79.6967 238.083 81.0551 239.189C82.3762 240.265 83.3042 241.501 83.8391 242.896C84.3554 244.277 84.501 245.618 84.2758 246.92L86.5722 244.101L89.1121 246.17L72.2868 266.825L69.7469 264.756L76.4316 256.55ZM69.9139 243.347C68.9741 244.5 68.3882 245.695 68.1561 246.93C67.924 248.164 68.0261 249.331 68.4624 250.429C68.8802 251.513 69.5635 252.441 70.5125 253.214C71.4429 253.972 72.4976 254.444 73.6767 254.631C74.822 254.821 75.9927 254.675 77.1889 254.195C78.3514 253.718 79.3949 252.912 80.3196 251.777C81.2594 250.623 81.8529 249.42 82.1001 248.166C82.3136 246.916 82.219 245.74 81.8165 244.638C81.3801 243.54 80.6968 242.612 79.7664 241.854C78.8174 241.081 77.7703 240.599 76.625 240.409C75.4459 240.223 74.2752 240.368 73.1127 240.845C71.9351 241.341 70.8688 242.174 69.9139 243.347Z" fill="white"/>
<path d="M52.2133 224.679C52.6913 224.278 53.22 223.881 53.7994 223.489L63.9351 235.568C65.3472 234.226 66.0904 232.741 66.1647 231.112C66.2052 229.48 65.6701 228.002 64.5593 226.679C63.6491 225.594 62.645 224.902 61.5469 224.601C60.4151 224.298 59.3029 224.354 58.2103 224.769L55.9425 222.067C57.7343 221.252 59.5989 221.066 61.5364 221.508C63.4554 221.966 65.1709 223.095 66.6828 224.897C67.8861 226.331 68.6443 227.888 68.9573 229.568C69.2549 231.229 69.0854 232.875 68.4487 234.506C67.7936 236.152 66.6848 237.631 65.122 238.942C63.5593 240.254 61.9274 241.09 60.2263 241.453C58.5251 241.815 56.8915 241.698 55.3253 241.101C53.7254 240.501 52.3083 239.465 51.0741 237.995C49.8708 236.561 49.1188 235.03 48.8183 233.402C48.5177 231.775 48.6722 230.204 49.2816 228.69C49.8572 227.173 50.8344 225.836 52.2133 224.679ZM53.8645 227.711C52.9085 228.513 52.2678 229.411 51.9424 230.405C51.5986 231.414 51.5606 232.433 51.8284 233.461C52.0624 234.487 52.5496 235.441 53.2901 236.323C54.3546 237.592 55.6693 238.337 57.2341 238.559C58.7836 238.763 60.3293 238.327 61.8713 237.253L53.8645 227.711Z" fill="white"/>
<path d="M46.0638 214.123C44.2344 214.97 42.4623 215.341 40.7474 215.236C39.0107 215.141 37.4637 214.628 36.1064 213.696C34.7391 212.742 33.6873 211.47 32.951 209.88C32.2249 208.312 31.9321 206.795 32.0727 205.328C32.2133 203.861 32.6643 202.608 33.4257 201.567L30.1589 203.08L28.7672 200.075L46.6688 191.785L48.0606 194.79L44.7285 196.333C46.0462 196.437 47.3257 196.916 48.5672 197.769C49.7769 198.61 50.7397 199.804 51.4558 201.351C52.192 202.94 52.4656 204.559 52.2767 206.207C52.0877 207.855 51.4569 209.377 50.3842 210.773C49.3115 212.169 47.8714 213.286 46.0638 214.123ZM39.0771 198.95C37.7268 199.575 36.6769 200.392 35.9272 201.401C35.1776 202.409 34.7582 203.503 34.6692 204.681C34.5484 205.848 34.7451 206.987 35.2595 208.097C35.7738 209.208 36.5041 210.1 37.4504 210.772C38.3966 211.445 39.4967 211.821 40.7506 211.902C42.0046 211.983 43.3067 211.71 44.6569 211.085C46.0289 210.449 47.1006 209.623 47.8721 208.604C48.6217 207.596 49.057 206.508 49.1779 205.341C49.277 204.185 49.0693 203.051 48.555 201.94C48.0406 200.829 47.3103 199.938 46.3641 199.265C45.386 198.581 44.2699 198.198 43.016 198.118C41.7403 198.047 40.4273 198.325 39.0771 198.95Z" fill="white"/>
<path d="M33.6917 183.346C31.6822 183.698 29.8624 183.602 28.2324 183.059C26.5788 182.52 25.2142 181.613 24.1387 180.339C23.059 179.042 22.3578 177.471 22.0353 175.627C21.6176 173.24 21.8536 171.176 22.7432 169.437C23.6286 167.674 25.0563 166.364 27.0263 165.508L27.6342 168.983C26.51 169.521 25.6899 170.334 25.1739 171.424C24.6537 172.489 24.5177 173.731 24.7658 175.15C25.0884 176.994 25.9872 178.371 27.4623 179.283C28.9138 180.198 30.7979 180.454 33.1148 180.048C35.4552 179.639 37.1645 178.755 38.2426 177.397C39.3207 176.039 39.6985 174.438 39.376 172.594C39.1278 171.176 38.5901 170.051 37.7627 169.222C36.9354 168.392 35.876 167.907 34.5846 167.767L33.9767 164.292C36.0535 164.465 37.8313 165.226 39.3099 166.575C40.7649 167.929 41.6971 169.776 42.1065 172.116C42.4291 173.96 42.3028 175.676 41.7276 177.263C41.1483 178.826 40.1724 180.142 38.8 181.21C37.4276 182.279 35.7248 182.991 33.6917 183.346Z" fill="white"/>
<path d="M40.453 152.101C40.4316 153.949 39.9922 155.624 39.1348 157.127C38.2776 158.605 37.076 159.767 35.5301 160.613C33.9605 161.435 32.1558 161.834 30.1159 161.81C28.1 161.787 26.3292 161.335 24.8033 160.453C23.2537 159.547 22.0796 158.333 21.2812 156.812C20.4588 155.29 20.0584 153.593 20.0801 151.722C20.1017 149.85 20.5413 148.163 21.3988 146.66C22.2322 145.158 23.4219 143.984 24.9678 143.138C26.514 142.267 28.307 141.844 30.3469 141.868C32.3867 141.891 34.1813 142.368 35.7307 143.298C37.2563 144.204 38.4302 145.43 39.2523 146.975C40.0745 148.521 40.4747 150.23 40.453 152.101ZM37.5732 152.068C37.5868 150.892 37.3236 149.785 36.7836 148.747C36.2436 147.708 35.4253 146.871 34.3286 146.234C33.2321 145.573 31.892 145.234 30.3081 145.216C28.7242 145.197 27.3767 145.494 26.2655 146.105C25.1544 146.716 24.329 147.522 23.7893 148.524C23.2257 149.526 22.9371 150.615 22.9235 151.79C22.9096 152.99 23.1728 154.098 23.713 155.112C24.2296 156.102 25.0364 156.903 26.1334 157.516C27.2303 158.129 28.5708 158.444 30.1547 158.463C31.7626 158.481 33.1218 158.209 34.2324 157.646C35.3433 157.059 36.1804 156.276 36.7438 155.299C37.2831 154.321 37.5596 153.244 37.5732 152.068Z" fill="white"/>
<path d="M22.7424 126.047C23.2191 123.695 24.3226 121.935 26.053 120.767C27.7598 119.595 29.954 119.28 32.6355 119.824L44.0318 122.133L43.3884 125.308L32.4507 123.092C30.5219 122.701 28.954 122.885 27.7472 123.645C26.5168 124.4 25.7324 125.612 25.3939 127.282C25.0508 128.976 25.3059 130.435 26.1595 131.661C27.0177 132.864 28.4583 133.67 30.4812 134.08L41.1719 136.246L40.5213 139.457L21.1863 135.539L21.8369 132.328L24.589 132.886C23.7298 132.05 23.1393 131.037 22.8175 129.845C22.5005 128.63 22.4755 127.364 22.7424 126.047Z" fill="white"/>
<path d="M31.0568 108.007L41.9589 112.051C42.859 112.385 43.5712 112.432 44.0956 112.191C44.5976 111.942 45.0238 111.345 45.3744 110.4L46.2133 108.139L48.8122 109.103L47.7855 111.87C47.1512 113.581 46.2816 114.717 45.1769 115.28C44.0721 115.843 42.6197 115.791 40.8195 115.123L29.9174 111.079L29.0285 113.475L26.497 112.536L27.386 110.14L22.7281 108.412L23.8675 105.34L28.5253 107.068L30.3158 102.242L32.8472 103.181L31.0568 108.007Z" fill="white"/>
<path d="M49.2264 85.3055C49.7728 85.6069 50.3333 85.9572 50.908 86.3564L43.2918 100.163C45.052 100.997 46.7052 101.155 48.2515 100.638C49.7883 100.088 50.9741 99.0561 51.8088 97.543C52.4927 96.3031 52.777 95.1169 52.6617 93.9844C52.537 92.8192 52.0841 91.8019 51.3029 90.9324L53.0069 87.8432C54.4121 89.2213 55.2575 90.8937 55.5431 92.8603C55.8077 94.8153 55.372 96.8225 54.236 98.8819C53.3317 100.521 52.1525 101.789 50.6983 102.686C49.2556 103.563 47.659 103.997 45.9083 103.991C44.1366 103.973 42.3576 103.471 40.5714 102.486C38.7852 101.501 37.4166 100.28 36.4658 98.8234C35.515 97.367 35.0359 95.8008 35.0286 94.1247C35.0118 92.4161 35.4671 90.7212 36.3945 89.04C37.2987 87.4009 38.4558 86.1479 39.8659 85.2812C41.2759 84.4144 42.7968 83.9926 44.4287 84.0157C46.0511 84.0061 47.6503 84.4361 49.2264 85.3055ZM46.993 87.9382C45.9002 87.3354 44.8318 87.0612 43.7876 87.1156C42.7224 87.1585 41.7583 87.49 40.8954 88.1104C40.023 88.6981 39.3086 89.4963 38.7521 90.505C37.9523 91.955 37.7306 93.4499 38.0872 94.9897C38.4555 96.5085 39.4186 97.7935 40.9766 98.8448L46.993 87.9382Z" fill="white"/>
<path d="M50.6356 68.0824C52.1649 66.2327 53.9678 65.2009 56.0443 64.987C58.1022 64.7578 60.1855 65.5149 62.2941 67.2583L71.2557 74.6678L69.1912 77.1648L60.5903 70.0536C59.0735 68.7995 57.604 68.2229 56.1816 68.3237C54.7408 68.4091 53.4774 69.1085 52.3916 70.4218C51.2905 71.7535 50.8273 73.1612 51.0021 74.6447C51.1921 76.1097 52.0825 77.4999 53.6732 78.8151L62.0799 85.7657L59.9924 88.2905L44.7882 75.7196L46.8757 73.1949L49.0398 74.9841C48.6759 73.8424 48.6329 72.6703 48.911 71.4677C49.2043 70.2466 49.7792 69.1182 50.6356 68.0824Z" fill="white"/>
<path d="M66.4284 65.1541C65.1494 63.5957 64.3457 61.9733 64.0173 60.2868C63.6736 58.5818 63.7826 56.9555 64.3443 55.4078C64.9246 53.845 65.9011 52.5002 67.274 51.3735C68.4613 50.3991 69.7935 49.7714 71.2707 49.4906C72.7326 49.1912 74.0979 49.266 75.3668 49.7149L68.7437 41.6448L71.3038 39.5436L88.2043 60.1365L85.6441 62.2376L83.2917 59.3713C83.5369 60.6915 83.4114 62.0518 82.9154 63.4525C82.4041 64.8345 81.4899 66.0661 80.1727 67.1471C78.8184 68.2586 77.3106 68.9371 75.6493 69.1828C74.0066 69.4132 72.3751 69.1843 70.7546 68.4961C69.1342 67.8079 67.6921 66.6939 66.4284 65.1541ZM79.3635 54.5849C78.4195 53.4346 77.3654 52.6231 76.2013 52.1504C75.0371 51.6776 73.8734 51.546 72.7103 51.7554C71.5504 51.9311 70.4974 52.4072 69.5513 53.1837C68.6051 53.9602 67.9251 54.8908 67.5114 55.9755C67.0976 57.0603 67.009 58.2196 67.2456 59.4537C67.4821 60.6877 68.0724 61.8798 69.0164 63.0301C69.9756 64.1989 71.0449 65.0289 72.2243 65.5202C73.3885 65.993 74.5505 66.1415 75.7104 65.9658C76.855 65.7716 77.9003 65.2863 78.8465 64.5098C79.7927 63.7332 80.4726 62.8026 80.8864 61.7179C81.3035 60.5994 81.3938 59.4231 81.1572 58.1891C80.9054 56.9365 80.3075 55.7351 79.3635 54.5849Z" fill="white"/>
<path d="M86.009 42.28C85.9312 41.0158 86.1882 39.8466 86.7801 38.7722C87.3925 37.6856 88.36 36.7517 89.6825 35.9705L91.4037 38.8841L90.6598 39.3235C87.4982 41.1912 86.9306 43.8401 88.957 47.2703L94.4135 56.507L91.5929 58.1732L81.5588 41.1876L84.3794 39.5214L86.009 42.28Z" fill="white"/>
<path d="M108.12 31.9888C108.411 30.666 109.065 29.4564 110.08 28.3601C111.096 27.2638 112.394 26.469 113.975 25.9757C115.67 25.4466 117.319 25.3721 118.921 25.7522C120.523 26.1322 121.942 26.9338 123.178 28.157C124.408 29.3572 125.323 30.9196 125.923 32.8441C126.517 34.7456 126.656 36.5625 126.342 38.2948C126.028 40.0271 125.312 41.5201 124.195 42.7738C123.101 44.0204 121.717 44.9047 120.045 45.4266C118.418 45.9342 116.875 46.0259 115.417 45.7018C113.981 45.3705 112.782 44.7515 111.82 43.8449L112.903 47.3158L109.776 48.2917L101.84 22.8612L104.967 21.8853L108.12 31.9888ZM122.727 33.8414C122.284 32.421 121.612 31.2732 120.71 30.3981C119.808 29.5229 118.779 28.9642 117.622 28.7217C116.489 28.4722 115.337 28.5297 114.169 28.8943C113.023 29.2518 112.048 29.8707 111.241 30.7508C110.45 31.601 109.925 32.6574 109.666 33.9201C109.422 35.1527 109.518 36.4677 109.954 37.8653C110.397 39.2857 111.073 40.445 111.982 41.343C112.907 42.211 113.939 42.7812 115.08 43.0537C116.237 43.2961 117.388 43.2386 118.534 42.8811C119.702 42.5165 120.682 41.9091 121.472 41.059C122.279 40.1788 122.804 39.1224 123.048 37.8898C123.285 36.6342 123.178 35.2848 122.727 33.8414Z" fill="white"/>
<path d="M147.767 29.4449C147.837 30.065 147.875 30.7249 147.881 31.4246L132.211 33.1835C132.548 35.102 133.373 36.5429 134.689 37.5061C136.026 38.4428 137.553 38.8148 139.27 38.6221C140.677 38.4641 141.81 38.0109 142.668 37.2626C143.547 36.4877 144.115 35.5302 144.374 34.3903L147.88 33.9967C147.567 35.9398 146.69 37.5959 145.25 38.9652C143.807 40.3105 141.917 41.1144 139.579 41.3768C137.719 41.5856 136.003 41.3556 134.43 40.6868C132.882 40.0154 131.604 38.9633 130.598 37.5306C129.589 36.0741 128.971 34.3321 128.744 32.3049C128.516 30.2776 128.722 28.4553 129.362 26.8378C130.001 25.2204 131.003 23.9245 132.367 22.9503C133.752 21.9496 135.398 21.3421 137.306 21.1279C139.167 20.9191 140.858 21.1398 142.38 21.7901C143.902 22.4404 145.125 23.4382 146.049 24.7835C146.994 26.1023 147.567 27.6561 147.767 29.4449ZM144.328 29.1426C144.189 27.9024 143.796 26.8719 143.148 26.051C142.498 25.2063 141.67 24.6109 140.665 24.2648C139.682 23.8922 138.617 23.7702 137.472 23.8987C135.827 24.0834 134.479 24.7661 133.428 25.9467C132.401 27.1246 131.908 28.6531 131.95 30.5321L144.328 29.1426Z" fill="white"/>
<path d="M160.734 30.1419C161.043 28.1497 161.717 26.4692 162.755 25.1003C163.797 23.7077 165.082 22.7049 166.61 22.0921C168.162 21.483 169.804 21.3128 171.535 21.5816C173.243 21.8467 174.668 22.4444 175.811 23.3747C176.953 24.305 177.747 25.3754 178.19 26.5858L178.742 23.0284L182.015 23.5365L178.989 43.031L175.716 42.5229L176.279 38.8943C175.462 39.9333 174.354 40.7328 172.956 41.2929C171.585 41.8329 170.057 41.9723 168.374 41.7108C166.642 41.4421 165.143 40.7722 163.877 39.7012C162.61 38.6302 161.693 37.2613 161.126 35.5946C160.559 33.9279 160.428 32.1103 160.734 30.1419ZM177.235 32.7401C177.463 31.2697 177.365 29.943 176.942 28.76C176.518 27.577 175.841 26.6218 174.909 25.8943C174.005 25.1467 172.949 24.6791 171.739 24.4913C170.53 24.3035 169.383 24.4169 168.298 24.8315C167.214 25.246 166.29 25.9527 165.528 26.9516C164.766 27.9505 164.271 29.1851 164.042 30.6555C163.81 32.1496 163.904 33.5 164.324 34.7067C164.748 35.8897 165.411 36.8549 166.315 37.6025C167.223 38.3263 168.282 38.7821 169.491 38.9699C170.701 39.1576 171.848 39.0443 172.932 38.6297C174.044 38.1951 174.981 37.4784 175.743 36.4795C176.509 35.4569 177.006 34.2104 177.235 32.7401Z" fill="white"/>
<path d="M192.499 36.6222C193.315 34.7524 194.399 33.2877 195.751 32.2281C197.113 31.1465 198.622 30.5086 200.278 30.3144C201.956 30.1298 203.652 30.4118 205.368 31.1603C207.59 32.1295 209.181 33.465 210.141 35.1666C211.122 36.8779 211.427 38.7912 211.054 40.9065L207.82 39.4959C207.992 38.2616 207.766 37.1288 207.142 36.0974C206.541 35.0756 205.58 34.2769 204.26 33.7011C202.544 32.9526 200.899 32.942 199.325 33.6693C197.761 34.3745 196.508 35.8051 195.568 37.9609C194.618 40.1387 194.412 42.0519 194.949 43.7004C195.487 45.3489 196.614 46.5474 198.33 47.2959C199.649 47.8716 200.884 48.0435 202.032 47.8114C203.181 47.5793 204.17 46.9633 204.999 45.9633L208.232 47.3739C206.942 49.0107 205.327 50.0733 203.385 50.5618C201.454 51.0284 199.399 50.7867 197.221 49.8367C195.505 49.0882 194.144 48.0363 193.138 46.681C192.154 45.3353 191.596 43.7953 191.462 42.0612C191.328 40.3271 191.674 38.5141 192.499 36.6222Z" fill="white"/>
<path d="M214.786 59.4031C213.256 58.3658 212.102 57.0752 211.322 55.5313C210.562 54.0009 210.256 52.3576 210.403 50.6014C210.583 48.8388 211.246 47.1134 212.391 45.4251C213.523 43.7567 214.877 42.5293 216.454 41.7431C218.065 40.9505 219.725 40.6409 221.434 40.8143C223.157 40.9679 224.793 41.5701 226.343 42.6208C227.892 43.6716 229.056 44.969 229.836 46.5129C230.629 48.0369 230.952 49.677 230.805 51.4332C230.678 53.2029 230.042 54.9318 228.897 56.6201C227.752 58.3084 226.364 59.5421 224.733 60.3213C223.136 61.094 221.466 61.3969 219.724 61.2298C217.981 61.0628 216.335 60.4539 214.786 59.4031ZM216.402 57.0197C217.376 57.6798 218.444 58.0711 219.608 58.1935C220.772 58.316 221.922 58.0955 223.058 57.5321C224.214 56.9822 225.237 56.0517 226.126 54.7408C227.015 53.4299 227.511 52.1425 227.615 50.8785C227.718 49.6146 227.501 48.4813 226.963 47.4785C226.438 46.4558 225.69 45.6144 224.716 44.9543C223.723 44.2807 222.655 43.8895 221.511 43.7805C220.4 43.6651 219.286 43.8959 218.17 44.4727C217.054 45.0496 216.051 45.9935 215.162 47.3044C214.259 48.6352 213.737 49.9191 213.594 51.1561C213.47 52.4065 213.661 53.5363 214.166 54.5455C214.684 55.5348 215.429 56.3595 216.402 57.0197Z" fill="white"/>
<path d="M246.446 59.1141C248.143 60.8111 249.001 62.7033 249.017 64.7907C249.051 66.8611 248.101 68.8637 246.166 70.7983L237.944 79.0205L235.653 76.7295L243.544 68.8382C244.936 67.4466 245.649 66.0381 245.683 64.6125C245.734 63.17 245.157 61.8463 243.952 60.6414C242.73 59.4195 241.372 58.8256 239.879 58.8595C238.402 58.9104 236.934 59.6656 235.475 61.1251L227.762 68.8382L225.445 66.5217L239.395 52.5719L241.712 54.8884L239.726 56.874C240.897 56.6194 242.068 56.6873 243.239 57.0776C244.427 57.4849 245.496 58.1637 246.446 59.1141Z" fill="white"/>
<path d="M256.981 76.0552L247.602 82.9297C246.828 83.4972 246.397 84.0661 246.309 84.6364C246.241 85.1925 246.504 85.877 247.1 86.69L248.526 88.6353L246.291 90.2741L244.545 87.8933C243.467 86.4222 242.997 85.0705 243.135 83.8384C243.274 82.6062 244.117 81.4226 245.666 80.2875L255.044 73.413L253.533 71.3516L255.71 69.7553L257.221 71.8168L261.228 68.8797L263.165 71.5219L259.158 74.459L262.202 78.611L260.024 80.2072L256.981 76.0552Z" fill="white"/>
<path d="M265.874 103.545C265.322 103.836 264.722 104.112 264.073 104.373L256.713 90.4284C255.05 91.4419 254.01 92.7369 253.594 94.3135C253.21 95.9 253.421 97.4574 254.228 98.9857C254.889 100.238 255.724 101.127 256.734 101.652C257.777 102.187 258.876 102.367 260.031 102.192L261.678 105.312C259.755 105.73 257.893 105.518 256.092 104.678C254.313 103.826 252.874 102.36 251.776 100.28C250.903 98.6239 250.49 96.9421 250.538 95.2341C250.598 93.5473 251.111 91.974 252.077 90.5141C253.065 89.0431 254.46 87.8315 256.265 86.8793C258.069 85.9271 259.84 85.4534 261.58 85.4581C263.319 85.4629 264.891 85.9222 266.296 86.836C267.734 87.7599 268.9 89.0709 269.797 90.7689C270.67 92.4245 271.082 94.0794 271.033 95.7338C270.983 97.3882 270.501 98.8911 269.586 100.242C268.703 101.604 267.466 102.705 265.874 103.545ZM264.9 100.233C266.003 99.6502 266.819 98.9076 267.347 98.0049C267.896 97.0911 268.148 96.1032 268.103 95.0413C268.091 93.9895 267.816 92.9542 267.278 91.9354C266.505 90.4708 265.377 89.465 263.894 88.9179C262.423 88.3919 260.82 88.4916 259.086 89.2168L264.9 100.233Z" fill="white"/>
<path d="M279.446 113.998C280.153 116.292 280.025 118.365 279.064 120.218C278.126 122.064 276.349 123.39 273.734 124.195L262.621 127.617L261.668 124.52L272.333 121.236C274.214 120.657 275.503 119.745 276.2 118.501C276.919 117.25 277.028 115.81 276.527 114.181C276.018 112.53 275.096 111.37 273.76 110.702C272.432 110.056 270.781 110.037 268.808 110.644L258.383 113.855L257.419 110.724L276.274 104.918L277.238 108.049L274.554 108.875C275.708 109.198 276.711 109.805 277.564 110.698C278.423 111.614 279.051 112.714 279.446 113.998Z" fill="white"/>
<path d="M273.347 129.496C275.353 129.295 277.149 129.524 278.735 130.185C280.345 130.843 281.639 131.834 282.616 133.159C283.596 134.508 284.175 136.066 284.353 137.833C284.507 139.361 284.291 140.818 283.707 142.203C283.147 143.586 282.328 144.682 281.252 145.49L291.639 144.445L291.971 147.74L265.464 150.406L265.133 147.111L268.822 146.74C267.587 146.213 266.524 145.355 265.633 144.166C264.765 142.975 264.246 141.532 264.076 139.836C263.9 138.093 264.17 136.462 264.886 134.942C265.604 133.447 266.698 132.215 268.169 131.247C269.639 130.279 271.365 129.696 273.347 129.496ZM274.983 146.12C276.464 145.971 277.723 145.543 278.762 144.835C279.8 144.128 280.554 143.232 281.024 142.148C281.52 141.085 281.707 139.944 281.584 138.726C281.462 137.508 281.064 136.427 280.39 135.482C279.716 134.536 278.799 133.82 277.641 133.334C276.482 132.847 275.163 132.679 273.682 132.827C272.178 132.979 270.895 133.409 269.832 134.119C268.794 134.827 268.027 135.712 267.531 136.775C267.058 137.836 266.883 138.975 267.006 140.193C267.128 141.41 267.527 142.492 268.201 143.437C268.901 144.404 269.83 145.131 270.989 145.617C272.171 146.101 273.503 146.269 274.983 146.12Z" fill="white"/>
</svg>
